<svg width="52" height="50" viewBox="0 0 52 50" fill="none" xmlns="http://www.w3.org/2000/svg">
<path d="M11.1375 35.6266V33.3212H12.0656C12.3216 33.3229 12.5668 33.2291 12.7431 33.0623C12.9008 32.9036 12.99 32.6989 12.9937 32.4861L11.3323 4.08986C11.1742 1.79148 9.05609 0 6.49706 0C3.93802 0 1.81992 1.79148 1.66177 4.08986L0.000458007 32.4861C-0.0072458 32.7136 0.0824812 32.9346 0.251059 33.1043C0.435045 33.2556 0.679302 33.3339 0.928544 33.3212H1.85663V35.6266L0.102421 38.7919C-0.0299042 39.028 -0.0299042 39.307 0.102421 39.5435L5.67093 49.5657C5.71625 49.6579 5.78287 49.7402 5.8658 49.8079C5.9741 49.8981 6.10461 49.9641 6.24646 50H6.75672C6.89902 49.9641 7.02953 49.8981 7.13738 49.8079C7.22076 49.7402 7.28693 49.6579 7.33224 49.5657L12.9008 39.5435C13.0331 39.307 13.0331 39.028 12.9008 38.7919L11.1375 35.6266ZM1.90285 31.6509L2.29303 24.9694H10.7011L11.1375 31.6509H1.90285ZM3.51794 4.13187C3.51794 2.65113 4.85161 1.45056 6.49706 1.45056C8.14251 1.45056 9.47617 2.65113 9.47617 4.13187L10.5991 23.3411H2.39499L2.49695 21.6707H7.66623C8.17921 21.6707 8.59431 21.2967 8.59431 20.8355C8.59431 20.3739 8.17921 20.0003 7.66623 20.0003H2.58985L3.51794 4.13187ZM9.28131 33.3212V34.9916H3.7128V33.3212H9.28131ZM7.42514 45.6487V40.0027H8.35323C8.86576 40.0027 9.28131 39.6287 9.28131 39.1675C9.28131 38.7063 8.86576 38.3323 8.35323 38.3323H4.64089C4.12835 38.3323 3.7128 38.7063 3.7128 39.1675C3.7128 39.6287 4.12835 40.0027 4.64089 40.0027H5.56897V45.6487L1.96811 39.1675L3.36024 36.662H9.63388L11.026 39.1675L7.42514 45.6487Z" fill="#FFBB01"/>
<path d="M45.3301 10.8379C45.7902 10.8379 46.1633 10.4648 46.1633 10.0046C46.1633 9.54447 45.7902 9.17139 45.3301 9.17139H23.6659C23.2058 9.17139 22.8327 9.54447 22.8327 10.0046V13.3376C22.8327 13.7977 23.2058 14.1708 23.6659 14.1708H45.3301C45.7902 14.1708 46.1633 13.7977 46.1633 13.3376C46.1633 12.8774 45.7902 12.5043 45.3301 12.5043H24.4992V10.8379H45.3301Z" fill="#FFBB01"/>
<path d="M46.1633 18.337C46.1633 17.8768 45.7902 17.5037 45.3301 17.5037H26.9989C26.5387 17.5037 26.1656 17.8768 26.1656 18.337C26.1656 18.7971 26.5387 19.1702 26.9989 19.1702H45.3301C45.7902 19.1702 46.1633 18.7971 46.1633 18.337Z" fill="#FFBB01"/>
<path d="M21.9995 22.5031C21.9995 22.9633 22.3725 23.3363 22.8327 23.3363H36.1645C36.6246 23.3363 36.9977 22.9633 36.9977 22.5031C36.9977 22.0429 36.6246 21.6699 36.1645 21.6699H22.8327C22.3725 21.6699 21.9995 22.0429 21.9995 22.5031Z" fill="#FFBB01"/>
<path d="M41.1639 21.6699C40.7038 21.6699 40.3307 22.0429 40.3307 22.5031C40.3307 22.9633 40.7038 23.3363 41.1639 23.3363H44.4969C44.957 23.3363 45.3301 22.9633 45.3301 22.5031C45.3301 22.0429 44.957 21.6699 44.4969 21.6699H41.1639Z" fill="#FFBB01"/>
<path d="M33.6648 26.6693C33.6648 26.2091 33.2917 25.8361 32.8315 25.8361H22.8327C22.3725 25.8361 21.9995 26.2091 21.9995 26.6693C21.9995 27.1294 22.3725 27.5025 22.8327 27.5025H32.8315C33.2917 27.5025 33.6648 27.1294 33.6648 26.6693Z" fill="#FFBB01"/>
<path d="M32.8315 30.8356C32.8315 30.3754 32.4584 30.0023 31.9983 30.0023H22.8327C22.3725 30.0023 21.9995 30.3754 21.9995 30.8356C21.9995 31.2957 22.3725 31.6688 22.8327 31.6688H31.9983C32.4584 31.6688 32.8315 31.2957 32.8315 30.8356Z" fill="#FFBB01"/>
<path d="M22.8327 34.1685C22.3725 34.1685 21.9995 34.5415 21.9995 35.0017C21.9995 35.4618 22.3725 35.8349 22.8327 35.8349H28.6653C29.1255 35.8349 29.4986 35.4618 29.4986 35.0017C29.4986 34.5415 29.1255 34.1685 28.6653 34.1685H22.8327Z" fill="#FFBB01"/>
<path d="M49.4962 0.0057373H19.4997C18.1193 0.0057373 17 1.12499 17 2.50545V40.8343C17 42.2148 18.1193 43.334 19.4997 43.334H33.6647C34.1249 43.334 34.498 42.961 34.498 42.5008C34.498 42.0406 34.1249 41.6676 33.6647 41.6676H19.4997C19.0396 41.6676 18.6665 41.2945 18.6665 40.8343V7.50487H50.3295V40.8343C50.3295 41.2945 49.9564 41.6676 49.4962 41.6676H46.9965C46.5364 41.6676 46.1633 42.0406 46.1633 42.5008C46.1633 42.961 46.5364 43.334 46.9965 43.334H49.4962C50.8767 43.334 51.9959 42.2148 51.9959 40.8343V2.50545C51.9959 1.12499 50.8767 0.0057373 49.4962 0.0057373ZM18.6665 5.83839V2.50545C18.6665 2.0453 19.0396 1.67221 19.4997 1.67221H49.4962C49.9564 1.67221 50.3295 2.0453 50.3295 2.50545V5.83839H18.6665Z" fill="#FFBB01"/>
<path d="M40.3306 30.8354C38.9501 30.8354 37.8309 31.9547 37.8309 33.3352C37.8309 34.7156 38.9501 35.8349 40.3306 35.8349C41.711 35.8349 42.8303 34.7156 42.8303 33.3352C42.8303 31.9547 41.711 30.8354 40.3306 30.8354ZM40.3306 34.1684C39.8704 34.1684 39.4973 33.7953 39.4973 33.3352C39.4973 32.875 39.8704 32.5019 40.3306 32.5019C40.7907 32.5019 41.1638 32.875 41.1638 33.3352C41.1638 33.7953 40.7907 34.1684 40.3306 34.1684Z" fill="#FFBB01"/>
<path d="M46.9965 33.3352C46.9953 32.4092 46.4826 31.5592 45.6632 31.1272C45.9358 30.2419 45.6966 29.2788 45.042 28.6238C44.3869 27.9692 43.4239 27.7299 42.5386 28.0025C42.1049 27.1856 41.2558 26.6746 40.3306 26.6746C39.4054 26.6746 38.5563 27.1856 38.1226 28.0025C37.2373 27.7299 36.2743 27.9692 35.6192 28.6238C34.9646 29.2788 34.7254 30.2419 34.998 31.1272C34.1806 31.5609 33.67 32.41 33.67 33.3352C33.67 34.2604 34.1806 35.1099 34.998 35.5432C34.7254 36.4264 34.9626 37.3878 35.6143 38.0429C35.7771 38.2052 35.9622 38.3427 36.1644 38.4514V49.1667C36.166 49.5031 36.3699 49.8054 36.6811 49.9332C36.9911 50.0638 37.3496 49.9946 37.5892 49.7582L40.3306 47.0087L43.072 49.7582C43.229 49.9145 43.4422 50.0011 43.6635 49.9999C43.773 50.0028 43.8812 49.98 43.9801 49.9332C44.2913 49.8054 44.4951 49.5031 44.4968 49.1667V38.4595C44.699 38.3509 44.8841 38.2133 45.0468 38.0514C45.6986 37.396 45.9358 36.435 45.6632 35.5517C46.4851 35.118 46.9985 34.2644 46.9965 33.3352ZM40.9222 45.2422C40.7659 45.0843 40.5527 44.9956 40.3306 44.9956C40.1084 44.9956 39.8953 45.0843 39.739 45.2422L37.8309 47.1584V38.7431L38.1226 38.6678C38.5563 39.4852 39.4054 39.9958 40.3306 39.9958C41.2558 39.9958 42.1049 39.4852 42.5386 38.6678L42.8303 38.7431V47.1584L40.9222 45.2422ZM44.4968 34.1684H44.3552C44.0159 34.1668 43.7091 34.371 43.5801 34.6851C43.452 34.9972 43.5244 35.3556 43.7636 35.5932L43.8637 35.6933C44.1867 36.0184 44.1867 36.5432 43.8637 36.8683C43.7718 36.9647 43.657 37.0363 43.5301 37.0766H43.4052C43.1428 37.1173 42.8767 37.0306 42.6887 36.8431L42.5886 36.743C42.3502 36.5029 41.9901 36.4305 41.6777 36.5603C41.3648 36.6901 41.1618 36.9964 41.1638 37.3349V37.5014C41.1638 37.9615 40.7907 38.3346 40.3306 38.3346C39.8704 38.3346 39.4974 37.9615 39.4974 37.5014V37.3598C39.499 37.0205 39.2947 36.7137 38.9806 36.5847C38.8802 36.5448 38.7723 36.5253 38.6641 36.5265C38.4428 36.5253 38.2296 36.6124 38.0725 36.7682L37.9725 36.8683C37.7845 37.0558 37.5184 37.1425 37.256 37.1014H37.1311C37.0041 37.0615 36.8894 36.9899 36.7975 36.8931C36.4744 36.568 36.4744 36.0432 36.7975 35.7181L36.9061 35.6184C37.1453 35.3804 37.2177 35.022 37.0892 34.7099C36.9602 34.3962 36.6538 34.1916 36.3145 34.1936H36.1644C35.7043 34.1936 35.3312 33.8205 35.3312 33.3604C35.3312 32.8998 35.7043 32.5272 36.1644 32.5272H36.306C36.6453 32.5288 36.9521 32.3241 37.081 32.0105C37.2092 31.6984 37.1368 31.34 36.8976 31.1019L36.7975 31.0023C36.4708 30.6776 36.4691 30.1499 36.7934 29.8232C37.1181 29.4965 37.6458 29.4945 37.9725 29.8191L38.0725 29.9274C38.3102 30.1666 38.669 30.239 38.9806 30.1104C39.2947 29.9815 39.499 29.6751 39.4974 29.3358V29.169C39.4974 28.7088 39.8704 28.3357 40.3306 28.3357C40.7907 28.3357 41.1638 28.7088 41.1638 29.169V29.3106C41.1622 29.6503 41.3664 29.9567 41.6805 30.0856C41.9922 30.2138 42.351 30.1418 42.5886 29.9021L42.6887 29.8025C43.013 29.4758 43.5411 29.4737 43.8678 29.798C44.1945 30.1226 44.1961 30.6503 43.8718 30.977L43.7636 31.0771C43.5244 31.3147 43.452 31.6736 43.5801 31.9852C43.7091 32.2993 44.0159 32.5036 44.3552 32.5019H44.4968C44.9569 32.5019 45.33 32.875 45.33 33.3352C45.33 33.7953 44.9569 34.1684 44.4968 34.1684Z" fill="#FFBB01"/>
</svg>
