<svg width="72" height="49" viewBox="0 0 72 49" fill="none" xmlns="http://www.w3.org/2000/svg">
<path d="M53.1 24H32.5169C32.0199 24 31.6169 24.3731 31.6169 24.8333C31.6169 25.2935 32.0199 25.6667 32.5169 25.6667H52.2V34H47.7V28.1667C47.7 27.7065 47.297 27.3333 46.8 27.3333C46.303 27.3333 45.9 27.7065 45.9 28.1667V34H21.6V25.6667H27C27.497 25.6667 27.9 25.2935 27.9 24.8333C27.9 24.3731 27.497 24 27 24H20.7C20.203 24 19.8 24.3731 19.8 24.8333V34.8333C19.8 35.2935 20.203 35.6667 20.7 35.6667H28.8V37.3333H20.7C20.203 37.3333 19.8 37.7065 19.8 38.1667V44H17.1V43.1667C17.1 42.7065 16.697 42.3333 16.2 42.3333H13.5V38.1667C13.5 37.7065 13.097 37.3333 12.6 37.3333C12.103 37.3333 11.7 37.7065 11.7 38.1667V43.1667C11.7 43.6269 12.103 44 12.6 44H15.3V45.6667H6.3V44H9C9.49702 44 9.9 43.6269 9.9 43.1667V38.1667C9.9 37.7065 9.49702 37.3333 9 37.3333C8.50298 37.3333 8.1 37.7065 8.1 38.1667V42.3333H5.4C4.90298 42.3333 4.5 42.7065 4.5 43.1667V44H0.9C0.402978 44 0 44.3731 0 44.8333C0 45.2935 0.402978 45.6667 0.9 45.6667H4.5V46.5C4.5 46.9602 4.90298 47.3333 5.4 47.3333H16.2C16.697 47.3333 17.1 46.9602 17.1 46.5V45.6667H19.8V48.1667C19.8 48.6269 20.203 49 20.7 49H53.1C53.597 49 54 48.6269 54 48.1667V38.1667C54 37.7065 53.597 37.3333 53.1 37.3333H45V35.6667H53.1C53.597 35.6667 54 35.2935 54 34.8333V24.8333C54 24.3731 53.597 24 53.1 24ZM52.2 47.3333H21.6V39H45.9V44.8333C45.9 45.2935 46.303 45.6667 46.8 45.6667C47.297 45.6667 47.7 45.2935 47.7 44.8333V39H52.2V47.3333ZM43.2 37.3333H30.6V35.6667H43.2V37.3333Z" fill="#FFBB01"/>
<path d="M55.9999 27.5C54.6193 27.5 53.4999 28.6194 53.4999 30C53.4999 31.381 54.6193 32.5 55.9999 32.5C57.3805 32.5 58.4999 31.381 58.4999 30C58.4999 28.6194 57.3805 27.5 55.9999 27.5ZM55.9999 30.8333C55.5397 30.8333 55.1665 30.4602 55.1665 30C55.1665 29.5398 55.5397 29.1667 55.9999 29.1667C56.4601 29.1667 56.8332 29.5398 56.8332 30C56.8332 30.4602 56.4601 30.8333 55.9999 30.8333Z" fill="#FFBB01"/>
<path d="M61.0001 32.5C61.4603 32.5 61.8334 32.1269 61.8334 31.6667V28.3333C61.8334 27.8731 61.4603 27.5 61.0001 27.5C60.5399 27.5 60.1667 27.8731 60.1667 28.3333V31.6667C60.1667 32.1269 60.5399 32.5 61.0001 32.5Z" fill="#FFBB01"/>
<path d="M65.1667 31.6667V28.3333C65.1667 27.8731 64.7935 27.5 64.3333 27.5C63.8731 27.5 63.5 27.8731 63.5 28.3333V31.6667C63.5 32.1269 63.8731 32.5 64.3333 32.5C64.7935 32.5 65.1667 32.1269 65.1667 31.6667Z" fill="#FFBB01"/>
<path d="M68.4999 31.6667V28.3333C68.4999 27.8731 68.1268 27.5 67.6666 27.5C67.2064 27.5 66.8333 27.8731 66.8333 28.3333V31.6667C66.8333 32.1269 67.2064 32.5 67.6666 32.5C68.1268 32.5 68.4999 32.1269 68.4999 31.6667Z" fill="#FFBB01"/>
<path d="M71.8332 31.6667V28.3333C71.8332 27.8731 71.46 27.5 70.9998 27.5C70.5396 27.5 70.1665 27.8731 70.1665 28.3333V31.6667C70.1665 32.1269 70.5396 32.5 70.9998 32.5C71.46 32.5 71.8332 32.1269 71.8332 31.6667Z" fill="#FFBB01"/>
<path d="M57.6665 42.5C57.2063 42.5 56.8332 42.8732 56.8332 43.3334C56.8332 43.7936 56.4601 44.1667 55.9999 44.1667C55.5397 44.1667 55.1665 43.7936 55.1665 43.3334C55.1665 42.8732 55.5397 42.5 55.9999 42.5C56.4601 42.5 56.8332 42.1269 56.8332 41.6667C56.8332 41.2065 56.4601 40.8334 55.9999 40.8334C54.6193 40.8334 53.4999 41.9528 53.4999 43.3334C53.4999 44.7144 54.6193 45.8334 55.9999 45.8334C57.3805 45.8334 58.4999 44.7144 58.4999 43.3334C58.4999 42.8732 58.1267 42.5 57.6665 42.5Z" fill="#FFBB01"/>
<path d="M61.0001 40.8334C60.5399 40.8334 60.1667 41.2065 60.1667 41.6667V45C60.1667 45.4602 60.5399 45.8334 61.0001 45.8334C61.4603 45.8334 61.8334 45.4602 61.8334 45V41.6667C61.8334 41.2065 61.4603 40.8334 61.0001 40.8334Z" fill="#FFBB01"/>
<path d="M64.3333 40.8334C63.8731 40.8334 63.5 41.2065 63.5 41.6667V45C63.5 45.4602 63.8731 45.8334 64.3333 45.8334C64.7935 45.8334 65.1667 45.4602 65.1667 45V41.6667C65.1667 41.2065 64.7935 40.8334 64.3333 40.8334Z" fill="#FFBB01"/>
<path d="M67.6666 40.8334C67.2064 40.8334 66.8333 41.2065 66.8333 41.6667V45C66.8333 45.4602 67.2064 45.8334 67.6666 45.8334C68.1268 45.8334 68.4999 45.4602 68.4999 45V41.6667C68.4999 41.2065 68.1268 40.8334 67.6666 40.8334Z" fill="#FFBB01"/>
<path d="M70.9998 40.8334C70.5396 40.8334 70.1665 41.2065 70.1665 41.6667V45C70.1665 45.4602 70.5396 45.8334 70.9998 45.8334C71.46 45.8334 71.8332 45.4602 71.8332 45V41.6667C71.8332 41.2065 71.46 40.8334 70.9998 40.8334Z" fill="#FFBB01"/>
<path d="M6.81241 29.9249C6.93152 29.9739 7.06031 29.9992 7.19041 30C7.60754 29.9943 7.96533 29.7229 8.05543 29.3451C8.1451 28.9669 7.94379 28.5813 7.56842 28.4123C3.33694 26.6121 1.02715 22.3192 2.0192 18.0972C3.0108 13.8753 7.03657 10.8648 11.6913 10.8636C12.6047 10.8632 13.5137 10.9811 14.3919 11.2145C14.8402 11.3349 15.3127 11.117 15.4811 10.7134C17.7465 5.25883 23.3977 1.66405 29.695 1.67139C36.8674 1.70403 43.065 6.33114 44.6381 12.8275C44.7185 13.1625 45.0113 13.4175 45.3761 13.4709C49.3047 14.0536 52.1965 17.1983 52.1996 20.8914C52.1956 21.1346 52.1776 21.3774 52.1455 21.6186C52.1125 21.843 52.1793 22.0707 52.3301 22.2486C52.4813 22.4265 52.7037 22.5399 52.9468 22.5628C53.1872 22.586 53.4276 22.5187 53.6136 22.3755C53.7999 22.2327 53.9164 22.0262 53.9371 21.8026C53.9766 21.5002 53.9977 21.1962 53.9999 20.8914C54.0184 16.5826 50.7926 12.8466 46.2583 11.9249C44.2816 4.92751 37.4876 0.0359876 29.695 8.06078e-05C22.9331 -0.0199131 16.801 3.68096 14.0767 9.42649C13.293 9.27022 12.4931 9.19147 11.6913 9.19228C6.19529 9.19759 1.44383 12.7528 0.270696 17.7373C-0.902003 22.7219 1.8192 27.7925 6.81241 29.9249V29.9249Z" fill="#FFBB01"/>
<path d="M44.3333 30.5087C44.4021 30.5205 44.4729 30.5205 44.5417 30.5087C45.4918 30.267 46.4032 29.8938 47.25 29.4003C47.4416 29.2888 47.5808 29.1057 47.637 28.8916C47.6931 28.6772 47.6618 28.4497 47.5499 28.2585C47.3184 27.8646 46.813 27.7307 46.4167 27.9586C45.6989 28.3745 44.9278 28.6914 44.125 28.9002C43.6648 28.9575 43.3385 29.3775 43.3958 29.8377C43.4532 30.2979 43.8731 30.6242 44.3333 30.5668V30.5087Z" fill="#FFBB01"/>
<path d="M10.4795 36C10.9794 36 11.3847 35.6157 11.3847 35.1418V21.6683L13.3488 24.4575C13.5154 24.6971 13.7973 24.8421 14.1001 24.8434C14.2782 24.8455 14.4523 24.7944 14.5977 24.6976C15.011 24.4357 15.1241 23.9073 14.8514 23.5134L11.2309 18.3641C11.2309 18.3641 11.2309 18.3641 11.1853 18.321C11.0139 18.1182 10.754 18 10.4795 18C10.2051 18 9.94519 18.1182 9.77371 18.321C9.77371 18.321 9.77371 18.321 9.72819 18.3641L6.10762 23.5134C5.88664 23.9039 6.0157 24.3896 6.40551 24.6343C6.79488 24.879 7.31684 24.8023 7.6103 24.4575L9.57439 21.6683V35.1418C9.57439 35.6157 9.97967 36 10.4795 36Z" fill="#FFBB01"/>
<path d="M33.6018 15.5552C33.1911 15.307 32.639 15.4099 32.3656 15.7861L30.4214 18.4638V8.82391C30.4214 8.36891 30.0203 8 29.5255 8C29.0307 8 28.6296 8.36891 28.6296 8.82391V18.4638L26.6855 15.7861C26.5245 15.5105 26.2082 15.3424 25.8683 15.352C25.5284 15.3617 25.2239 15.5471 25.0817 15.8311C24.94 16.1152 24.985 16.4487 25.1981 16.6925L28.7818 21.6359C28.9485 21.8636 29.2272 22 29.5255 22C29.8239 22 30.1025 21.8636 30.2692 21.6359L33.8529 16.6925C34.1229 16.3143 34.0109 15.8066 33.6018 15.5552Z" fill="#FFBB01"/>
</svg>
