<?xml version="1.0" standalone="no"?>
<!DOCTYPE svg PUBLIC "-//W3C//DTD SVG 20010904//EN"
 "http://www.w3.org/TR/2001/REC-SVG-20010904/DTD/svg10.dtd">
<svg version="1.0" xmlns="http://www.w3.org/2000/svg"
 width="640.000000pt" height="640.000000pt" viewBox="0 0 640.000000 640.000000"
 preserveAspectRatio="xMidYMid meet">
<metadata>
Created by potrace 1.16, written by Peter Selinger 2001-2019
</metadata>
<g transform="translate(0.000000,640.000000) scale(0.100000,-0.100000)"
fill="#000000" stroke="none">
<path d="M1192 6288 l-2 -118 235 0 235 0 0 118 c-1 84 -3 112 -11 100 -9 -15
-26 -18 -119 -18 -91 0 -110 3 -110 15 0 8 -3 15 -7 15 -5 0 -8 -46 -8 -102
l0 -103 -102 -3 -102 -3 -4 108 -3 108 -2 -117z m458 -13 l0 -85 -115 0 -115
0 0 85 0 85 115 0 115 0 0 -85z"/>
<path d="M795 6320 c-4 -6 -1 -10 4 -10 6 0 11 -4 11 -8 0 -4 -9 -8 -20 -8
-11 0 -20 6 -20 13 0 7 -4 13 -9 13 -5 0 -7 -9 -4 -20 3 -11 9 -20 14 -20 5 0
9 -4 9 -10 0 -5 -9 -10 -20 -10 -16 0 -20 7 -20 30 0 17 -3 30 -7 30 -5 0 -6
-110 -3 -245 4 -190 2 -246 -7 -250 -7 -2 -13 -10 -13 -17 0 -10 2 -10 9 1 7
11 9 11 13 0 4 -10 11 -8 27 10 11 13 21 18 21 11 0 -7 7 -10 15 -6 10 3 15
-1 16 -12 0 -11 2 -12 6 -4 4 10 8 10 19 1 20 -16 28 -5 10 13 -8 8 -16 28
-18 44 -4 26 -5 27 -14 9 -10 -22 -44 -30 -44 -10 0 7 8 12 17 11 12 0 19 7
21 22 2 12 8 20 13 17 5 -4 9 5 9 19 0 13 -6 26 -12 29 -10 3 -10 7 1 21 10
12 13 40 9 116 -3 55 -1 100 3 100 5 0 6 21 4 48 -2 26 -4 52 -5 58 0 16 -28
26 -35 14z"/>
<path d="M2975 6250 c-11 -18 -5 -813 6 -827 9 -10 101 -13 470 -13 l459 0 0
40 0 40 -392 1 c-216 1 -400 1 -409 0 -36 -4 -39 19 -37 275 l3 249 509 3
c367 1 513 -1 522 -9 11 -9 14 -44 14 -145 0 -74 3 -134 8 -135 4 0 25 -1 47
-2 l40 -2 3 254 c2 179 -1 258 -9 267 -9 12 -116 14 -620 14 -383 0 -610 -4
-614 -10z m613 -108 c7 -50 -2 -52 -258 -52 -259 0 -269 2 -256 55 l6 25 253
-2 252 -3 3 -23z"/>
<path d="M5873 5883 c-7 -2 -13 -18 -13 -33 0 -23 -7 -32 -35 -46 -34 -16 -37
-16 -55 1 -20 18 -21 18 -50 -10 -32 -31 -38 -56 -16 -74 11 -9 11 -17 -3 -46
-12 -26 -22 -34 -42 -35 -30 0 -39 -15 -39 -66 0 -29 3 -34 24 -34 21 0 25 -6
31 -42 6 -36 4 -43 -15 -58 -25 -19 -22 -38 9 -79 16 -20 21 -22 40 -11 20 10
27 8 52 -16 19 -18 27 -34 23 -44 -3 -8 -8 -20 -10 -25 -3 -6 15 -21 38 -34
39 -21 43 -21 55 -5 7 9 14 21 16 27 2 6 17 7 42 1 30 -7 41 -15 43 -32 3 -16
10 -22 30 -22 53 0 72 11 72 40 0 20 8 31 34 45 34 18 36 18 55 1 19 -18 21
-17 58 17 l37 36 -22 19 c-22 20 -22 20 -5 55 14 27 25 37 48 39 28 3 30 6 33
49 3 42 1 47 -21 53 -19 4 -26 15 -32 43 -6 31 -3 39 16 54 l23 17 -19 37
c-25 46 -30 49 -56 35 -18 -10 -25 -7 -51 19 -24 25 -27 33 -19 50 15 27 16
27 -29 50 -50 26 -48 26 -60 -5 -8 -21 -15 -25 -33 -20 -12 3 -32 6 -44 6 -18
0 -23 6 -23 25 0 22 -4 25 -37 24 -21 0 -44 -3 -50 -6z m157 -211 c78 -39 105
-142 54 -209 -58 -76 -147 -84 -214 -18 -56 55 -63 134 -15 189 48 56 112 70
175 38z"/>
<path d="M4100 5623 c1 -16 28 -43 43 -43 9 0 19 -4 22 -10 3 -5 -2 -10 -13
-10 -10 0 -25 -11 -32 -25 -7 -14 -17 -25 -22 -25 -4 0 -8 -6 -8 -14 0 -8 -4
-18 -10 -21 -5 -3 -7 0 -4 9 4 10 -4 16 -26 21 -17 4 -34 4 -37 1 -4 -3 1 -6
9 -6 9 0 15 -6 14 -12 0 -7 3 -14 7 -15 4 -1 15 -9 24 -18 8 -9 22 -14 30 -11
8 3 27 6 41 7 l27 1 -25 8 c-17 5 -19 8 -7 9 30 2 32 0 29 -21 -1 -12 3 -25
10 -29 9 -6 8 -10 -5 -15 -9 -3 -17 -12 -17 -19 0 -14 -52 -27 -75 -19 -8 4
-15 1 -15 -5 0 -6 -7 -11 -15 -11 -8 0 -16 -4 -16 -10 -1 -5 -2 -14 -3 -19 0
-5 -4 -13 -8 -17 -5 -4 -8 -12 -8 -18 0 -5 9 0 20 12 17 18 28 21 58 16 40 -6
56 -14 29 -14 -9 0 -17 -4 -17 -10 0 -5 5 -10 10 -10 6 0 10 -13 10 -30 0 -31
16 -41 26 -15 4 8 10 13 14 10 4 -3 10 6 12 20 5 21 3 23 -15 14 -16 -9 -14
-3 9 27 16 22 32 41 37 42 4 2 15 11 24 20 16 16 16 16 11 0 -7 -17 24 -53 35
-41 4 3 7 0 7 -8 0 -8 9 -20 20 -27 16 -10 20 -10 20 0 1 30 16 41 40 28 15
-8 9 2 -17 29 -22 23 -46 40 -54 38 -8 -2 -11 -2 -8 0 4 2 4 13 1 25 -3 14 2
26 19 39 13 10 18 19 12 19 -7 0 -13 8 -13 18 0 15 2 15 11 2 8 -11 12 -12 16
-2 2 6 10 12 16 12 8 0 7 -4 -1 -12 -18 -18 -14 -27 11 -24 35 5 57 17 67 36
7 13 6 19 -4 23 -10 4 -12 -1 -9 -16 4 -20 3 -20 -7 -4 -8 12 -18 16 -32 11
-15 -4 -18 -3 -13 7 6 9 4 11 -8 6 -11 -4 -14 -2 -10 9 3 7 0 14 -6 14 -6 0
-11 7 -11 15 0 8 -6 15 -12 15 -9 0 -8 3 2 9 8 6 18 7 24 4 5 -3 6 -1 2 5 -3
5 0 13 6 15 7 3 3 6 -9 6 -29 1 -73 -47 -73 -79 0 -37 11 -70 21 -64 12 7 11
-3 -1 -27 -11 -20 -30 -26 -30 -8 0 5 5 7 12 3 8 -5 9 -2 5 10 -4 10 -7 20 -7
22 0 2 -5 4 -11 4 -5 0 -7 -5 -3 -12 5 -8 2 -9 -10 -5 -10 4 -22 7 -27 7 -5 0
-9 9 -9 20 0 22 -15 27 -23 8 -3 -8 -6 -7 -6 4 -1 9 4 20 9 23 11 7 9 42 -4
63 -4 8 -16 10 -28 6 -11 -3 -18 -2 -15 3 3 5 -3 14 -14 21 -10 7 -19 9 -19 5z"/>
<path d="M0 5410 l0 -90 653 -1 c358 -1 644 -3 635 -6 -11 -3 -18 -14 -18 -27
0 -29 -37 -48 -62 -32 -14 9 -22 6 -40 -12 -21 -21 -22 -24 -6 -33 17 -9 17
-12 3 -40 -10 -18 -22 -29 -33 -27 -13 2 -18 -5 -20 -29 -2 -24 1 -33 11 -33
25 0 39 -64 16 -72 -6 -2 -8 -14 -3 -32 5 -22 11 -26 29 -22 24 6 62 -25 51
-43 -3 -5 1 -17 10 -25 17 -18 54 -22 54 -6 0 6 13 10 29 10 21 0 32 -6 36
-21 4 -13 12 -18 22 -15 8 3 21 6 29 6 8 0 14 9 14 20 0 19 30 34 61 30 32 -5
47 1 52 19 2 11 0 24 -6 30 -16 16 8 61 33 61 27 0 27 49 0 73 -24 21 -26 46
-3 62 16 12 16 14 0 38 -11 17 -23 24 -32 20 -22 -8 -57 26 -49 49 4 13 -2 21
-21 30 -23 10 -29 10 -39 -4 -16 -21 -69 -10 -74 15 -3 15 13 17 167 17 93 0
181 -4 195 -10 17 -6 27 -6 32 1 4 8 9 7 15 -2 6 -10 9 -11 9 -1 0 6 11 12 25
12 14 0 25 -6 25 -12 0 -8 3 -9 8 -3 4 6 16 10 27 10 11 0 23 -4 27 -10 5 -6
8 -5 8 3 0 10 15 12 55 10 30 -2 55 -7 55 -12 0 -4 6 -3 14 3 9 8 61 11 162 9
l149 -3 -3 -1265 c-1 -696 -2 -1311 -2 -1368 0 -115 7 -105 -87 -133 -24 -7
-43 -16 -43 -21 0 -5 -4 -6 -10 -3 -5 3 -10 2 -10 -3 0 -8 -46 -35 -63 -36 -4
-1 -12 -8 -17 -16 -5 -8 -10 -11 -10 -6 0 5 -10 -4 -22 -20 -49 -63 -102 -114
-120 -114 -10 0 -18 -7 -18 -15 0 -8 -4 -15 -9 -15 -6 0 -22 -11 -37 -25 -15
-14 -31 -25 -36 -25 -5 0 -13 -12 -18 -26 -6 -14 -14 -22 -20 -19 -5 3 -10 -2
-10 -12 0 -15 -2 -16 -10 -3 -6 10 -10 11 -10 3 0 -8 -15 -13 -40 -13 -22 0
-40 -4 -40 -9 0 -5 -8 -18 -17 -27 -17 -17 -17 -18 0 -11 9 3 17 2 17 -3 0 -6
9 -10 20 -10 11 0 20 -7 20 -15 0 -8 -6 -15 -12 -15 -9 0 -8 -4 2 -10 12 -8
11 -10 -7 -10 -16 0 -21 -4 -17 -15 4 -8 1 -15 -6 -15 -7 0 -9 -8 -5 -20 4
-14 1 -22 -10 -26 -13 -6 -14 -8 -3 -15 10 -7 9 -9 -4 -9 -11 0 -15 -5 -12
-14 4 -9 -6 -15 -33 -19 -23 -4 -43 -15 -51 -27 -14 -23 -9 -27 37 -33 51 -8
35 -26 -41 -51 -21 -6 -24 -46 -4 -46 7 0 25 -6 40 -13 l26 -14 -42 -13 c-53
-15 -73 -39 -49 -57 9 -7 24 -13 34 -13 20 0 24 -40 5 -40 -9 0 -8 -4 2 -10 8
-5 10 -10 4 -10 -6 0 -9 -10 -7 -24 3 -14 0 -39 -6 -58 -6 -18 -11 -50 -13
-70 -1 -21 -6 -38 -11 -38 -4 0 -7 -10 -5 -22 3 -23 1 -23 -137 -30 -77 -3
-420 -4 -762 -2 l-623 4 0 -105 0 -105 239 0 239 0 4 -22 c2 -13 5 -137 7
-275 l3 -253 -246 0 -246 0 0 -305 0 -305 3200 0 3200 0 0 265 0 265 -883 0
c-486 0 -886 3 -890 6 -3 3 8 20 24 38 44 44 92 122 116 186 26 68 32 94 43
190 8 64 6 85 -12 145 -11 39 -24 79 -29 90 -12 30 -56 211 -68 285 -6 36 -14
75 -16 88 l-5 22 860 0 860 0 0 110 0 110 -880 0 c-484 0 -880 2 -880 5 0 18
-53 261 -59 274 -5 9 -14 41 -21 71 -7 30 -16 60 -20 65 -4 6 -15 39 -25 75
-27 99 -55 132 -160 185 -50 25 -97 47 -105 49 -40 7 -101 31 -111 43 -6 7
-18 13 -25 13 -17 0 -168 72 -172 83 -2 4 -9 7 -17 7 -47 0 -206 72 -226 102
-3 5 -8 9 -10 7 -14 -8 -48 17 -71 54 -33 51 -63 81 -76 74 -5 -4 -5 -38 0
-82 8 -66 6 -85 -12 -143 -25 -77 -77 -174 -116 -215 -21 -23 -27 -41 -31 -90
-5 -62 -5 -63 -78 -136 l-73 -74 -67 64 -66 63 5 48 c4 45 2 51 -35 91 -54 57
-143 191 -176 263 -24 54 -26 68 -24 169 2 94 -1 121 -23 185 -48 146 -63 179
-99 221 -39 44 -53 78 -43 104 3 8 1 15 -3 15 -11 0 -20 23 -31 81 -10 52 4
122 23 117 7 -2 28 -51 47 -109 45 -135 74 -195 104 -214 18 -12 48 -16 118
-15 51 0 101 2 111 3 22 4 40 30 56 80 10 28 18 37 35 37 17 0 28 -12 46 -50
13 -28 32 -53 44 -56 33 -11 177 -8 223 5 44 12 73 42 73 74 0 10 8 31 19 45
10 15 26 63 36 107 9 44 26 101 37 127 11 26 17 52 12 59 -4 7 -3 10 4 5 7 -4
10 9 10 38 0 25 5 70 12 100 6 31 9 70 6 88 -3 18 -9 57 -12 86 -13 104 -43
159 -118 217 l-51 40 1448 3 1447 2 0 100 0 100 -1767 0 c-1187 0 -1780 -4
-1805 -10 -90 -25 -171 -127 -182 -228 -5 -49 -15 -68 -17 -31 -1 21 -2 20 -9
-6 l-7 -30 -11 25 c-8 18 -11 20 -11 8 -1 -10 -6 -18 -12 -18 -5 0 -7 -5 -4
-10 4 -6 3 -10 -2 -9 -24 4 -43 -3 -43 -16 0 -8 -4 -15 -10 -15 -5 0 -11 -8
-12 -17 -6 -58 -14 360 -16 837 l-2 555 -1245 3 -1245 2 0 -90z m1403 -250
c39 -31 48 -70 27 -117 -44 -99 -185 -69 -185 39 0 79 96 126 158 78z m2119
-1280 c16 -26 34 -77 42 -122 8 -42 22 -90 30 -106 14 -28 14 -35 -10 -106
l-26 -76 -86 0 c-48 0 -105 -2 -127 -5 -25 -3 -33 -2 -20 3 11 5 43 19 70 32
28 13 66 24 85 26 51 3 50 3 50 19 0 12 -13 15 -57 15 -45 0 -73 -8 -145 -42
-89 -42 -106 -57 -65 -59 17 -1 16 -3 -8 -8 -16 -4 -40 -13 -52 -19 -30 -17
-78 -15 -93 3 -10 12 -43 15 -175 15 l-162 0 -17 58 c-9 32 -15 76 -15 98 1
21 -1 62 -5 90 -6 37 -3 61 9 90 24 59 33 62 122 48 43 -7 102 -13 132 -13 90
-1 261 29 317 55 141 66 167 67 206 4z m1 -494 c-3 -80 -34 -97 -179 -97 -43
0 -82 5 -90 12 -23 19 -39 86 -25 103 17 20 222 47 271 35 23 -5 25 -10 23
-53z m-449 24 c20 -7 26 -17 26 -39 0 -42 -20 -81 -44 -86 -66 -13 -101 -15
-146 -9 -44 6 -55 12 -76 43 -13 20 -24 50 -24 68 l0 33 119 0 c66 0 131 -4
145 -10z m1440 -1661 c13 -6 29 -21 35 -33 9 -15 11 -221 9 -759 l-3 -739 -24
-19 c-23 -18 -59 -19 -1353 -19 -918 0 -1335 3 -1349 11 -11 5 -24 22 -30 36
-13 35 -12 1424 1 1473 6 22 19 41 32 48 32 15 2648 16 2682 1z m-3159 -600
c33 -1 52 -3 43 -6 -19 -5 -21 -12 -18 -54 0 -14 -5 -31 -13 -38 -8 -6 -13
-21 -10 -31 3 -11 1 -20 -3 -20 -9 0 -17 -86 -18 -207 -1 -42 -5 -73 -11 -73
-5 0 -2 -7 9 -15 10 -7 16 -18 13 -23 -4 -4 0 -20 7 -34 9 -17 10 -25 2 -25
-6 -1 -64 -4 -128 -9 l-118 -7 0 270 c0 148 3 273 8 277 4 5 45 6 92 2 47 -3
112 -6 145 -7z m3179 -1025 c19 -4 23 -12 22 -35 -1 -16 -10 -37 -19 -47 -17
-16 -103 -17 -1350 -19 -1057 -2 -1337 0 -1357 10 -27 14 -46 56 -37 80 5 15
137 16 1362 17 745 0 1366 -2 1379 -6z"/>
<path d="M3192 1131 c-5 -3 -24 -69 -41 -146 -18 -77 -35 -150 -38 -163 -5
-21 -3 -23 28 -20 28 2 34 8 40 33 3 17 19 84 34 150 15 66 28 126 29 134 1
14 -36 22 -52 12z"/>
<path d="M2925 1067 c-128 -71 -125 -69 -125 -104 0 -23 6 -36 18 -40 9 -3 47
-23 84 -45 36 -21 69 -38 72 -38 3 0 6 17 6 38 0 33 -4 39 -41 56 -22 11 -42
23 -45 27 -2 4 16 19 41 33 40 24 45 31 45 61 0 41 -2 41 -55 12z"/>
<path d="M3372 1053 c3 -32 8 -39 45 -57 23 -12 42 -24 43 -28 0 -4 -22 -19
-48 -32 -43 -22 -48 -28 -47 -55 2 -51 0 -52 152 35 26 15 33 26 33 50 0 28
-7 34 -85 77 -47 26 -88 47 -91 47 -3 0 -4 -17 -2 -37z"/>
<path d="M1676 4945 c4 -9 0 -15 -7 -15 -11 0 -11 -3 1 -10 13 -9 13 -10 0
-10 -9 -1 -6 -6 9 -14 19 -11 21 -14 7 -19 -9 -4 -16 -2 -16 3 0 15 -14 12
-37 -9 -11 -10 -29 -21 -39 -24 -16 -4 -17 -5 -1 -6 9 0 17 -6 17 -12 0 -5 -4
-8 -9 -4 -5 3 -12 1 -16 -5 -3 -5 1 -10 10 -10 10 0 31 -14 47 -32 25 -27 28
-36 19 -50 -14 -23 -3 -23 16 0 13 16 14 15 10 -5 -3 -13 -1 -23 4 -23 8 0 13
22 10 43 0 4 4 7 9 7 6 0 10 7 10 16 0 10 6 14 15 10 8 -3 15 0 15 6 0 6 3 8
6 5 4 -4 1 -13 -5 -21 -11 -13 -8 -15 24 -12 30 3 35 1 31 -13 -5 -12 -2 -11
9 3 20 26 19 33 -4 45 -13 7 -19 21 -19 46 0 19 4 35 9 35 5 0 9 7 9 15 0 8
-2 15 -4 15 -2 0 -11 3 -19 6 -8 3 -22 -2 -31 -11 -15 -15 -16 -15 -16 6 0 22
0 22 -15 3 -14 -19 -14 -18 -15 4 0 12 -4 22 -10 22 -5 0 -10 7 -10 15 0 8 -4
15 -10 15 -5 0 -7 -7 -4 -15z"/>
<path d="M3696 3488 c-3 -13 -7 -35 -9 -50 l-4 -28 153 0 154 0 0 50 0 50
-145 0 c-142 0 -145 0 -149 -22z"/>
<path d="M4030 3476 c0 -69 -11 -66 235 -66 123 0 226 3 228 8 2 4 2 26 -1 50
l-4 42 -229 0 -229 0 0 -34z"/>
<path d="M4540 3460 l0 -50 165 0 165 0 0 50 0 50 -165 0 -165 0 0 -50z"/>
<path d="M4909 3495 c-1 -8 -1 -22 -1 -30 0 -60 -20 -55 232 -55 l229 0 -4 30
c-2 16 -6 34 -10 40 -3 5 -1 10 4 10 6 0 11 5 11 10 0 6 -83 10 -230 10 -197
0 -230 -2 -231 -15z"/>
<path d="M6220 3308 c0 -15 -91 -118 -105 -118 -3 0 -3 5 0 10 3 6 1 10 -4 10
-14 0 -14 -13 -1 -26 6 -6 6 -22 0 -44 -6 -19 -10 -46 -10 -59 0 -13 -8 -33
-17 -43 -13 -15 -14 -21 -5 -27 9 -5 10 -15 4 -32 -5 -13 -12 -45 -16 -71 -4
-27 -12 -48 -17 -48 -6 0 -7 -9 -4 -20 9 -29 -8 -24 -33 9 -13 18 -18 32 -12
36 13 8 13 45 -1 45 -6 0 -8 -9 -3 -22 6 -22 6 -22 -13 -5 -28 25 -34 22 -70
-31 l-33 -47 0 -483 0 -482 260 0 260 0 0 615 c0 339 -4 614 -9 611 -8 -5 -37
23 -36 36 0 4 -8 17 -19 29 -14 17 -16 26 -8 40 11 16 7 29 -9 29 -5 0 -6 -7
-3 -15 9 -22 -9 -18 -24 5 -10 16 -10 20 0 20 7 1 2 7 -12 14 -13 8 -32 29
-42 47 -10 19 -18 26 -18 17z"/>
<path d="M4913 1464 c-45 -22 -70 -88 -53 -138 33 -100 176 -106 217 -8 41 99
-67 196 -164 146z"/>
</g>
</svg>
